<svg width="15" height="15" viewBox="0 0 15 15" fill="none" xmlns="http://www.w3.org/2000/svg">
<path d="M14 13.1746V6.15873C14 6.03059 13.9706 5.90421 13.9142 5.7896C13.8578 5.67499 13.7759 5.5753 13.675 5.49841L7.9875 1.16508C7.84686 1.05792 7.6758 1 7.5 1C7.3242 1 7.15314 1.05792 7.0125 1.16508L1.325 5.49841C1.22409 5.5753 1.14219 5.67499 1.08578 5.7896C1.02937 5.90421 1 6.03059 1 6.15873V13.1746C1 13.3935 1.0856 13.6035 1.23798 13.7582C1.39035 13.913 1.59701 14 1.8125 14H5.0625C5.27799 14 5.48465 13.913 5.63702 13.7582C5.7894 13.6035 5.875 13.3935 5.875 13.1746V10.6984C5.875 10.4795 5.9606 10.2696 6.11298 10.1148C6.26535 9.95998 6.47201 9.87302 6.6875 9.87302H8.3125C8.52799 9.87302 8.73465 9.95998 8.88702 10.1148C9.0394 10.2696 9.125 10.4795 9.125 10.6984V13.1746C9.125 13.3935 9.2106 13.6035 9.36298 13.7582C9.51535 13.913 9.72201 14 9.9375 14H13.1875C13.403 14 13.6097 13.913 13.762 13.7582C13.9144 13.6035 14 13.3935 14 13.1746Z" fill="black" stroke="black" stroke-width="2" stroke-linecap="round" stroke-linejoin="round"/>
</svg>
